<?xml version="1.0" encoding="utf-8"?>
<!-- Generator: Adobe Illustrator 25.0.1, SVG Export Plug-In . SVG Version: 6.00 Build 0)  -->
<svg version="1.0" id="Layer_1" xmlns="http://www.w3.org/2000/svg" xmlns:xlink="http://www.w3.org/1999/xlink" x="0px" y="0px"
	 viewBox="0 0 386 270" style="enable-background:new 0 0 386 270;" xml:space="preserve">
<style type="text/css">
	.st0{fill:none;}
	.st1{fill:#547DBF;}
	.st2{fill:#3869B2;}
</style>
<g>
	<polygon class="st0" points="214.7,93.3 171.3,93.3 145.8,135 171.3,176.7 214.7,176.7 240.2,135 	"/>
	<path class="st0" d="M240.2,135l-25.5-41.7L240.2,135z"/>
	<polygon class="st0" points="171.3,176.7 171.3,176.7 145.8,135 	"/>
	<path class="st0" d="M171.3,93.3L145.8,135L171.3,93.3z"/>
	<polygon class="st1" points="214.7,176.7 240.2,135 240.2,135 	"/>
	<path class="st1" d="M214.7,93.3l25.5,41.7l0,0l0,0l33.2-54.3l-18.1-31.3c-4-6.9-11.3-11.1-19.3-11.1H205l-33.7,55H214.7z"/>
	<path class="st1" d="M214.7,176.7h-43.4l33.6,55H236c7.9,0,15.3-4.2,19.3-11.1l18.1-31.4L240.2,135L214.7,176.7z"/>
	<path class="st2" d="M171.3,93.3l33.7-55h-55c-7.9,0-15.3,4.2-19.3,11.1l-25.4,43.9H171.3L171.3,93.3z"/>
	<path class="st2" d="M298.3,123.9l-24.9-43.2L240.2,135l33.2,54.3l24.9-43.1C302.3,139.2,302.3,130.8,298.3,123.9z"/>
	<path class="st2" d="M171.3,176.7h-65.9l25.4,43.9c4,6.9,11.3,11.1,19.3,11.1h54.9L171.3,176.7L171.3,176.7z"/>
	<path class="st1" d="M145.8,135l25.5-41.7h-65.9l-17.7,30.6c-4,6.9-4,15.4,0,22.2l17.7,30.6h65.9L145.8,135z"/>
</g>
</svg>
